<svg xmlns="http://www.w3.org/2000/svg" viewBox="-20 -20 3070 640" width="1200"><path d="M0.0,600.0 L1500.0,600.0 L1500.0,545.5 L1527.0,549.7 L1527.0,486.6 L1500.0,490.9 L1500.0,436.4 L1527.0,440.6 L1527.0,377.5 L1500.0,381.8 L1500.0,327.3 L1527.0,331.5 L1527.0,268.5 L1500.0,272.7 L1500.0,218.2 L1527.0,222.5 L1527.0,159.4 L1500.0,163.6 L1500.0,109.1 L1527.0,113.4 L1527.0,50.3 L1500.0,54.5 L1500.0,0.0 L0.0,0.0 Z" fill="#4C78A8" fill-opacity="0.55" stroke="#4C78A8" stroke-width="2"/><path d="M1500.0,600.0 L3000.0,600.0 L3000.0,0.0 L1500.0,0.0 L1500.0,54.5 L1527.0,50.3 L1527.0,113.4 L1500.0,109.1 L1500.0,163.6 L1527.0,159.4 L1527.0,222.5 L1500.0,218.2 L1500.0,272.7 L1527.0,268.5 L1527.0,331.5 L1500.0,327.3 L1500.0,381.8 L1527.0,377.5 L1527.0,440.6 L1500.0,436.4 L1500.0,490.9 L1527.0,486.6 L1527.0,549.7 L1500.0,545.5 Z" fill="#E45756" fill-opacity="0.55" stroke="#E45756" stroke-width="2"/></svg>